<svg width="1920" height="1080" viewBox="0 0 1920 1080" fill="none" xmlns="http://www.w3.org/2000/svg">
	<g clip-path="url(#clip0_631_328)">
		<rect width="1920" height="1080" fill="#131315" />
		<path fill-rule="evenodd" clip-rule="evenodd" d="M1664 1016L1664 1015.98L1664.02 1016L1664 1016ZM1664 1004.67L1675.33 1016L1680.99 1016L1664 999.01L1664 1004.67ZM1692.3 1016L1664 987.696L1664 982.039L1697.96 1016L1692.3 1016ZM1664 970.725L1709.27 1016L1714.93 1016L1664 965.068L1664 970.725ZM1726.25 1016L1664.25 954L1669.9 954L1731.9 1016L1726.25 1016ZM1681.22 954L1743.22 1016L1748.87 1016L1686.87 954L1681.22 954ZM1760.19 1016L1698.19 954L1703.84 954L1765.84 1016L1760.19 1016ZM1782.81 1016L1777.16 1016L1715.16 954L1720.81 954L1782.81 1016ZM1732.13 954L1794.13 1016L1799.78 1016L1737.78 954L1732.13 954ZM1807 1006.25L1807 1011.9L1749.1 954L1754.75 954L1807 1006.25ZM1766.07 954L1807 994.931L1807 989.274L1771.73 954L1766.07 954ZM1807 972.304L1807 977.961L1783.04 954L1788.7 954L1807 972.304ZM1800.01 954L1807 960.99L1807 955.333L1805.67 954L1800.01 954Z" fill="#414143" />
		<path fill-rule="evenodd" clip-rule="evenodd" d="M149 126L149 125.98L149.02 126L149 126ZM149 114.666L160.334 126L165.99 126L149 109.01L149 114.666ZM177.304 126L149 97.6958L149 92.039L182.961 126L177.304 126ZM149 80.7253L194.275 126L199.932 126L149 75.0684L149 80.7253ZM211.245 126L149.245 64L154.902 64L216.902 126L211.245 126ZM166.216 64L228.216 126L233.873 126L171.873 64L166.216 64ZM245.186 126L183.186 64L188.843 64L250.843 126L245.186 126ZM267.814 126L262.157 126L200.157 64L205.814 64L267.814 126ZM217.128 64L279.128 126L284.784 126L222.784 64L217.128 64ZM292 116.245L292 121.902L234.098 64L239.755 64L292 116.245ZM251.069 64L292 104.931L292 99.2745L256.726 64L251.069 64ZM292 82.3039L292 87.9608L268.039 64L273.696 64L292 82.3039ZM285.01 64L292 70.9902L292 65.3333L290.667 64L285.01 64Z" fill="#414143" />
		<rect x="64" y="64" width="7" height="15" fill="#1BE1FF" />
		<mask id="path-4-inside-1_631_328" fill="white">
			<path d="M71 64H78V79H71V64Z" />
		</mask>
		<path d="M78 64H79V63H78V64ZM78 79V80H79V79H78ZM71 65H78V63H71V65ZM77 64V79H79V64H77ZM78 78H71V80H78V78Z" fill="#1BE1FF" mask="url(#path-4-inside-1_631_328)" />
		<rect width="7" height="15" transform="matrix(1 0 0 -1 1156 1016)" fill="#414143" />
		<mask id="path-7-inside-2_631_328" fill="white">
			<path d="M1163 1016H1171V1001H1163V1016Z" />
		</mask>
		<path d="M1171 1016H1172V1017H1171V1016ZM1171 1001V1000H1172V1001H1171ZM1163 1015H1171V1017H1163V1015ZM1170 1016V1001H1172V1016H1170ZM1171 1002H1163V1000H1171V1002Z" fill="#414143" mask="url(#path-7-inside-2_631_328)" />
		<rect x="64" y="1001" width="7" height="15" fill="#1BE1FF" />
		<mask id="path-10-inside-3_631_328" fill="white">
			<path d="M71 1001H78V1016H71V1001Z" />
		</mask>
		<path d="M78 1001H79V1000H78V1001ZM78 1016V1017H79V1016H78ZM71 1002H78V1000H71V1002ZM77 1001V1016H79V1001H77ZM78 1015H71V1017H78V1015Z" fill="#1BE1FF" mask="url(#path-10-inside-3_631_328)" />
		<rect x="1842" y="64" width="7" height="15" fill="#1BE1FF" />
		<mask id="path-13-inside-4_631_328" fill="white">
			<path d="M1849 64H1856V79H1849V64Z" />
		</mask>
		<path d="M1856 64H1857V63H1856V64ZM1856 79V80H1857V79H1856ZM1849 65H1856V63H1849V65ZM1855 64V79H1857V64H1855ZM1856 78H1849V80H1856V78Z" fill="#1BE1FF" mask="url(#path-13-inside-4_631_328)" />
		<rect x="1842" y="1001" width="7" height="15" fill="#1BE1FF" />
		<mask id="path-16-inside-5_631_328" fill="white">
			<path d="M1849 1001H1856V1016H1849V1001Z" />
		</mask>
		<path d="M1856 1001H1857V1000H1856V1001ZM1856 1016V1017H1857V1016H1856ZM1849 1002H1856V1000H1849V1002ZM1855 1001V1016H1857V1001H1855ZM1856 1015H1849V1017H1856V1015Z" fill="#1BE1FF" mask="url(#path-16-inside-5_631_328)" />
		<path d="M1842.8 446V437.2H1834V432.8H1842.8V424H1847.2V432.8H1856V437.2H1847.2V446H1842.8Z" fill="#414143" />
		<path d="M1842.8 567V558.2H1834V553.8H1842.8V545H1847.2V553.8H1856V558.2H1847.2V567H1842.8Z" fill="#414143" />
	</g>
	<defs>
		<clipPath id="clip0_631_328">
			<rect width="1920" height="1080" fill="white" />
		</clipPath>
	</defs>
</svg>
