<svg viewBox="0 0 1920 1080" fill="none" xmlns="http://www.w3.org/2000/svg">
	<g clip-path="url(#clip0_625_26)">
		<rect width="1920" height="1080" fill="#131315" />
		<path d="M1676.29 941.489H1685.19V950.689" stroke="#58585A" stroke-width="2.96767" />
		<path d="M1648.39 986.895H1639.49V977.695" stroke="#58585A" stroke-width="2.96767" />
		<path d="M1658.48 961.076L1662.04 964.637M1665.61 968.199L1662.04 964.637M1662.04 964.637L1658.48 968.199M1662.04 964.637L1665.61 961.076" stroke="#414143" stroke-width="2.96767" />
		<path d="M1639.19 959.592V964.637M1639.19 969.682V964.637M1639.19 964.637H1650.17" stroke="#414143" stroke-width="2.96767" />
		<path d="M1684.89 959.295V964.34M1684.89 969.385V964.34M1684.89 964.34H1673.91" stroke="#414143" stroke-width="2.96767" />
		<path d="M1666.79 986.895H1661.75M1656.7 986.895H1661.75M1661.75 986.895V975.914" stroke="#414143" stroke-width="2.96767" />
		<path d="M1666.79 941.489H1661.75M1656.7 941.489H1661.75M1661.75 941.489V952.47" stroke="#414143" stroke-width="2.96767" />
		<rect x="1611" y="913" width="102.681" height="102.681" stroke="#414143" stroke-width="2.96767" stroke-dasharray="77.75 77.75" />
		<path d="M1815.61 986.895H1824.51V977.695" stroke="#414143" stroke-width="2.96767" />
		<path d="M1787.71 941.489H1778.81V950.689" stroke="#414143" stroke-width="2.96767" />
		<path d="M1797.8 961.076L1801.36 964.637M1804.92 968.199L1801.36 964.637M1801.36 964.637L1797.8 968.199M1801.36 964.637L1804.92 961.076" stroke="#414143" stroke-width="2.96767" />
		<path d="M1806.11 986.895H1801.07M1796.02 986.895H1801.07M1801.07 986.895V975.914" stroke="#414143" stroke-width="2.96767" />
		<path d="M1806.11 941.489H1801.07M1796.02 941.489H1801.07M1801.07 941.489V952.47" stroke="#414143" stroke-width="2.96767" />
		<rect x="1750.32" y="913" width="102.681" height="102.681" stroke="#414143" stroke-width="2.96767" stroke-dasharray="77.75 77.75" />
		<path d="M1801.96 984.818C1790.16 984.818 1780.59 975.251 1780.59 963.451" stroke="#58585A" stroke-width="2.96767" />
		<path d="M1800.77 943.864C1812.57 943.864 1822.14 953.43 1822.14 965.231" stroke="#58585A" stroke-width="2.96767" />
		<path d="M1827.19 93.1055H1818.29V102.305" stroke="#414143" stroke-width="2.96767" />
		<path d="M1781.49 138.511H1790.39V129.311" stroke="#414143" stroke-width="2.96767" />
		<path d="M1800.48 118.924L1804.04 115.363M1807.61 111.801L1804.04 115.363M1804.04 115.363L1800.48 111.801M1804.04 115.363L1807.61 118.924" stroke="#58585A" stroke-width="2.96767" />
		<path d="M1808.79 104.085H1803.75M1798.7 104.085H1803.75M1803.75 104.085V93.1051" stroke="#414143" stroke-width="2.96767" />
		<path d="M1808.79 127.53H1803.75M1798.7 127.53H1803.75M1803.75 127.53V138.511" stroke="#414143" stroke-width="2.96767" />
		<rect width="102.681" height="102.681" transform="matrix(1 0 0 -1 1753 167)" stroke="#58585A" stroke-width="2.96767" stroke-dasharray="77.75 77.75" />
		<path d="M1804.64 95.1821C1792.84 95.1821 1783.27 104.749 1783.27 116.549" stroke="#414143" stroke-width="2.96767" />
		<path d="M1803.45 136.136C1815.25 136.136 1824.82 126.57 1824.82 114.769" stroke="#414143" stroke-width="2.96767" />
		<path fill-rule="evenodd" clip-rule="evenodd" d="M1794 734H1794.02L1794 734.02V734ZM1805.33 734L1794 745.334V750.99L1810.99 734H1805.33ZM1794 762.304L1822.3 734H1827.96L1794 767.961V762.304ZM1839.27 734L1794 779.275V784.932L1844.93 734H1839.27ZM1794 796.245L1856 734.245V739.902L1794 801.902V796.245ZM1856 751.216L1794 813.216V818.873L1856 756.873V751.216ZM1794 830.186L1856 768.186V773.843L1794 835.843V830.186ZM1794 852.814V847.157L1856 785.157V790.814L1794 852.814ZM1856 802.128L1794 864.128V869.784L1856 807.784V802.128ZM1803.75 877H1798.1L1856 819.098V824.755L1803.75 877ZM1856 836.069L1815.07 877H1820.73L1856 841.726V836.069ZM1837.7 877H1832.04L1856 853.039V858.696L1837.7 877ZM1856 870.01L1849.01 877H1854.67L1856 875.667V870.01Z" fill="#414143" />
		<path fill-rule="evenodd" clip-rule="evenodd" d="M64 167H64.0199L64 167.02V167ZM75.3336 167L64 178.334V183.99L80.9905 167H75.3336ZM64 195.304L92.3042 167H97.961L64 200.961V195.304ZM109.275 167L64 212.275V217.932L114.932 167H109.275ZM64 229.245L126 167.245V172.902L64 234.902V229.245ZM126 184.216L64 246.216V251.873L126 189.873V184.216ZM64 263.186L126 201.186V206.843L64 268.843V263.186ZM64 285.814V280.157L126 218.157V223.814L64 285.814ZM126 235.128L64 297.128V302.784L126 240.784V235.128ZM73.755 310H68.0981L126 252.098V257.755L73.755 310ZM126 269.069L85.0687 310H90.7255L126 274.726V269.069ZM107.696 310H102.039L126 286.039V291.696L107.696 310ZM126 303.01L119.01 310H124.667L126 308.667V303.01Z" fill="#414143" />
		<path fill-rule="evenodd" clip-rule="evenodd" d="M1064 873H1064.02L1064 873.02V873ZM1075.33 873L1064 884.334V889.99L1080.99 873H1075.33ZM1064 901.304L1092.3 873H1097.96L1064 906.961V901.304ZM1109.27 873L1064 918.275V923.932L1114.93 873H1109.27ZM1064 935.245L1126 873.245V878.902L1064 940.902V935.245ZM1126 890.216L1064 952.216V957.873L1126 895.873V890.216ZM1064 969.186L1126 907.186V912.843L1064 974.843V969.186ZM1064 991.814V986.157L1126 924.157V929.814L1064 991.814ZM1126 941.128L1064 1003.13V1008.78L1126 946.784V941.128ZM1073.75 1016H1068.1L1126 958.098V963.755L1073.75 1016ZM1126 975.069L1085.07 1016H1090.73L1126 980.726V975.069ZM1107.7 1016H1102.04L1126 992.039V997.696L1107.7 1016ZM1126 1009.01L1119.01 1016H1124.67L1126 1014.67V1009.01Z" fill="#414143" />
		<rect x="64" y="64" width="7" height="15" fill="#1BE1FF" />
		<mask id="path-29-inside-1_625_26" fill="white">
			<path d="M71 64H78V79H71V64Z" />
		</mask>
		<path d="M78 64H79V63H78V64ZM78 79V80H79V79H78ZM71 65H78V63H71V65ZM77 64V79H79V64H77ZM78 78H71V80H78V78Z" fill="#1BE1FF" mask="url(#path-29-inside-1_625_26)" />
		<rect width="7" height="15" transform="matrix(0 -1 -1 0 1156 1016)" fill="#414143" />
		<mask id="path-32-inside-2_625_26" fill="white">
			<path d="M1156 1009V1001H1141V1009H1156Z" />
		</mask>
		<path d="M1156 1001V1000H1157V1001H1156ZM1141 1001H1140V1000H1141V1001ZM1155 1009V1001H1157V1009H1155ZM1156 1002H1141V1000H1156V1002ZM1142 1001V1009H1140V1001H1142Z" fill="#414143" mask="url(#path-32-inside-2_625_26)" />
		<rect width="7" height="15" transform="matrix(0 -1 -1 0 1186 1001)" fill="#414143" />
		<mask id="path-35-inside-3_625_26" fill="white">
			<path d="M1186 994V986H1171V994H1186Z" />
		</mask>
		<path d="M1186 986V985H1187V986H1186ZM1171 986H1170V985H1171V986ZM1185 994V986H1187V994H1185ZM1186 987H1171V985H1186V987ZM1172 986V994H1170V986H1172Z" fill="#414143" mask="url(#path-35-inside-3_625_26)" />
		<rect width="7" height="15" transform="matrix(1 0 0 -1 1156 1016)" fill="#414143" />
		<mask id="path-38-inside-4_625_26" fill="white">
			<path d="M1163 1016H1171V1001H1163V1016Z" />
		</mask>
		<path d="M1171 1016H1172V1017H1171V1016ZM1171 1001V1000H1172V1001H1171ZM1163 1015H1171V1017H1163V1015ZM1170 1016V1001H1172V1016H1170ZM1171 1002H1163V1000H1171V1002Z" fill="#414143" mask="url(#path-38-inside-4_625_26)" />
		<rect width="7" height="15" transform="matrix(1 0 0 -1 1201 1016)" fill="#414143" />
		<mask id="path-41-inside-5_625_26" fill="white">
			<path d="M1208 1016H1216V1001H1208V1016Z" />
		</mask>
		<path d="M1216 1016H1217V1017H1216V1016ZM1216 1001V1000H1217V1001H1216ZM1208 1015H1216V1017H1208V1015ZM1215 1016V1001H1217V1016H1215ZM1216 1002H1208V1000H1216V1002Z" fill="#414143" mask="url(#path-41-inside-5_625_26)" />
		<rect width="7" height="15" transform="matrix(1 0 0 -1 1126 1016)" fill="#414143" />
		<mask id="path-44-inside-6_625_26" fill="white">
			<path d="M1133 1016H1141V1001H1133V1016Z" />
		</mask>
		<path d="M1141 1016H1142V1017H1141V1016ZM1141 1001V1000H1142V1001H1141ZM1133 1015H1141V1017H1133V1015ZM1140 1016V1001H1142V1016H1140ZM1141 1002H1133V1000H1141V1002Z" fill="#414143" mask="url(#path-44-inside-6_625_26)" />
		<rect width="7" height="15" transform="matrix(-1 0 0 1 1186 1001)" fill="#414143" />
		<mask id="path-47-inside-7_625_26" fill="white">
			<path d="M1179 1001H1171V1016H1179V1001Z" />
		</mask>
		<path d="M1171 1001H1170V1000H1171V1001ZM1171 1016V1017H1170V1016H1171ZM1179 1002H1171V1000H1179V1002ZM1172 1001V1016H1170V1001H1172ZM1171 1015H1179V1017H1171V1015Z" fill="#414143" mask="url(#path-47-inside-7_625_26)" />
		<rect x="64" y="1001" width="7" height="15" fill="#1BE1FF" />
		<mask id="path-50-inside-8_625_26" fill="white">
			<path d="M71 1001H78V1016H71V1001Z" />
		</mask>
		<path d="M78 1001H79V1000H78V1001ZM78 1016V1017H79V1016H78ZM71 1002H78V1000H71V1002ZM77 1001V1016H79V1001H77ZM78 1015H71V1017H78V1015Z" fill="#1BE1FF" mask="url(#path-50-inside-8_625_26)" />
		<rect x="1842" y="64" width="7" height="15" fill="#1BE1FF" />
		<mask id="path-53-inside-9_625_26" fill="white">
			<path d="M1849 64H1856V79H1849V64Z" />
		</mask>
		<path d="M1856 64H1857V63H1856V64ZM1856 79V80H1857V79H1856ZM1849 65H1856V63H1849V65ZM1855 64V79H1857V64H1855ZM1856 78H1849V80H1856V78Z" fill="#1BE1FF" mask="url(#path-53-inside-9_625_26)" />
		<rect x="1842" y="1001" width="7" height="15" fill="#1BE1FF" />
		<mask id="path-56-inside-10_625_26" fill="white">
			<path d="M1849 1001H1856V1016H1849V1001Z" />
		</mask>
		<path d="M1856 1001H1857V1000H1856V1001ZM1856 1016V1017H1857V1016H1856ZM1849 1002H1856V1000H1849V1002ZM1855 1001V1016H1857V1001H1855ZM1856 1015H1849V1017H1856V1015Z" fill="#1BE1FF" mask="url(#path-56-inside-10_625_26)" />
		<rect opacity="0.6" x="1001.49" y="1.485" width="917.03" height="1077.03" stroke="#272729" stroke-width="2.97" />
		<path d="M1842.8 446V437.2H1834V432.8H1842.8V424H1847.2V432.8H1856V437.2H1847.2V446H1842.8Z" fill="#414143" />
		<path d="M1842.8 567V558.2H1834V553.8H1842.8V545H1847.2V553.8H1856V558.2H1847.2V567H1842.8Z" fill="#414143" />
	</g>
	<defs>
		<clipPath id="clip0_625_26">
			<rect width="1920" height="1080" fill="white" />
		</clipPath>
	</defs>
</svg>
