<svg viewBox="0 0 300 61" fill="none" xmlns="http://www.w3.org/2000/svg">
	<path fill-rule="evenodd" clip-rule="evenodd" d="M29.7617 60.2852C46.1987 60.2852 59.5235 46.9604 59.5235 30.5234C59.5235 14.0865 46.1987 0.761719 29.7617 0.761719C13.3248 0.761719 0 14.0865 0 30.5234C0 46.9604 13.3248 60.2852 29.7617 60.2852ZM54.9694 25.7596C53.4408 17.6211 48.0682 10.8383 40.8091 7.36866C39.1514 6.57634 38.3225 6.18018 38.2026 6.35945C38.0828 6.53871 38.7961 7.1808 40.2227 8.46498C45.0464 12.807 49.0207 19.7151 49.872 22.6947C48.8016 23.4975 46.6607 24.568 45.409 24.9079C45.6287 26.6958 45.7439 28.5477 45.7439 30.4437C45.7439 31.5921 45.7186 32.7299 45.6655 33.8515C45.6345 34.5054 45.619 34.8323 45.8274 34.9908C46.0359 35.1493 46.3367 35.0504 46.9384 34.8524C48.5898 34.3092 49.9686 33.701 51.0354 33.0597C52.3821 32.2502 53.8731 31.1461 54.4957 30.0253C55.1184 28.9046 55.2429 27.2158 54.9694 25.7596ZM27.7089 8.72935C27.7089 8.38959 27.7089 8.21971 27.5895 8.1403C27.47 8.06088 27.3201 8.12378 27.0201 8.24956C24.6125 9.25912 22.5176 11.4112 20.8995 14.7029C20.1532 16.2211 19.533 17.9389 19.0485 19.8156C18.9657 20.1364 18.9243 20.2968 19.0131 20.3961C19.1019 20.4954 19.2686 20.4717 19.6021 20.4244C22.1448 20.0631 24.8713 19.8351 27.7089 19.7606V8.72935ZM27.7089 23.8747C25.0936 23.9472 22.6063 24.1566 20.3079 24.4781C19.2686 24.6234 18.749 24.6961 18.3877 25.0836C18.0264 25.4711 17.9905 25.9901 17.9188 27.0283C17.842 28.1395 17.803 29.2792 17.803 30.4421C17.803 31.7756 17.8608 33.1009 17.9709 34.4031C18.044 35.268 18.0805 35.7004 18.3781 36.0165C18.6756 36.3326 19.1073 36.3955 19.9708 36.5214C22.9535 36.9563 26.2628 37.2013 29.7617 37.2013C30.0194 37.2013 30.2761 37.1999 30.5318 37.1973C30.9778 37.1927 31.3324 37.5836 31.2836 38.0269C31.072 39.9484 29.3874 41.3146 27.4555 41.2454C24.451 41.1378 21.3192 40.8915 18.9018 40.5197C18.9025 40.5229 18.9032 40.5261 18.9039 40.5293C17.9929 40.3886 17.0148 40.2266 16.3586 40.0891C15.6107 39.9323 14.7173 39.7139 13.997 39.5307C13.6399 39.4398 13.3311 39.3591 13.112 39.3012C13.0025 39.2723 12.9156 39.2491 12.8564 39.2332L12.8548 39.2328C12.1989 39.0479 11.5673 38.8521 10.9622 38.646C8.51898 37.8141 6.39412 36.7773 4.83871 35.5251C4.74266 35.4478 4.64776 35.3687 4.55422 35.288C6.07068 43.3608 11.3693 50.0995 18.5396 53.5939C19.3322 53.9801 19.7285 54.1733 19.8536 54.0244C19.9786 53.8755 19.7081 53.5022 19.1672 52.7556C18.2442 51.4818 17.4309 50.0053 16.7282 48.4068C16.4462 47.7654 16.179 47.0972 15.9274 46.4056C15.5529 45.3763 15.3657 44.8616 15.6399 44.5317C15.9142 44.2018 16.478 44.2958 17.6057 44.4838C17.9777 44.5458 18.3312 44.6025 18.6297 44.6477C19.559 44.7885 20.3305 45.4278 20.6886 46.2968C20.7705 46.4953 20.8537 46.6909 20.9383 46.8832C21.8979 49.0662 22.9863 50.7422 24.0859 51.8369C25.1918 52.938 26.1101 53.2678 26.7918 53.2678C29.4822 53.2678 31.7322 51.5583 33.3958 47.3431C34.0955 45.5701 34.6313 43.4772 35.016 41.1354C35.0094 41.1359 35.0028 41.1363 34.9961 41.1368C35.236 39.7469 35.3959 38.4347 35.5138 36.9744C35.5169 36.9741 35.52 36.9739 35.5231 36.9736C35.6969 34.9158 35.7806 32.7269 35.7806 30.4421C35.7806 29.1948 35.7377 27.971 35.6551 26.7776C33.3721 26.9199 30.4554 27.0027 27.7154 26.8867V26.8224H27.7089V23.8747ZM13.2704 30.4421C13.2704 31.5929 13.3103 32.7411 13.3876 33.8789C13.42 34.3542 13.4361 34.5918 13.3289 34.7384C13.2733 34.8145 13.1954 34.8744 13.1075 34.9086C12.9382 34.9745 12.7214 34.9006 12.2878 34.753C10.0894 34.0044 8.45806 33.1592 7.41764 32.3216C6.35872 31.4692 6.1688 30.8484 6.1688 30.5238C6.1688 30.2068 6.34838 29.6088 7.34691 28.7836C8.33158 27.97 9.88161 27.1421 11.9833 26.4002C12.0115 26.3903 12.0397 26.3803 12.0681 26.3704C12.6821 26.1559 12.9891 26.0486 13.2018 26.2089C13.4145 26.3692 13.3952 26.7064 13.3567 27.3809C13.2991 28.3884 13.2704 29.41 13.2704 30.4421ZM16.76 13.0278C15.7855 15.0101 15.017 17.2302 14.4521 19.6192C14.2328 20.5464 14.1232 21.01 13.8487 21.3013C13.5743 21.5926 13.1189 21.7294 12.2081 22.003C11.6579 22.1683 11.1262 22.3415 10.6143 22.5222C8.26642 23.3511 6.22333 24.3772 4.72726 25.6134C4.66907 25.6615 4.61132 25.7102 4.55409 25.7596C6.15414 17.2405 11.9661 10.2069 19.745 6.90385C20.7923 6.45915 21.3159 6.2368 21.4312 6.4043C21.5465 6.57181 21.1322 7.002 20.3036 7.86238C18.8888 9.33141 17.7112 11.0926 16.76 13.0278ZM39.7676 52.9009C38.9565 53.8188 38.5509 54.2777 38.6709 54.4398C38.7908 54.6018 39.3191 54.3613 40.3757 53.8804C47.4324 50.6685 52.778 44.3526 54.668 36.677C54.8071 36.1124 54.8766 35.83 54.7361 35.7323C54.5957 35.6345 54.3432 35.8057 53.8383 36.148C53.6139 36.3001 53.3852 36.4456 53.1542 36.5844C51.4986 37.5797 49.4167 38.4312 47.0416 39.1257C46.0895 39.4042 45.6134 39.5434 45.3316 39.8509C45.0497 40.1584 44.9525 40.6441 44.7582 41.6156C44.2139 44.3359 43.4241 46.8399 42.34 49.0175C41.6163 50.471 40.7608 51.777 39.7676 52.9009Z" fill="white" />
	<path d="M94.3967 26.5005C105.592 28.0173 113.97 30.6174 113.97 41.3068C113.97 49.5405 107.108 57.052 93.7466 57.052C79.6626 57.052 73.5234 47.9515 73.5234 38.5622H80.746C80.8905 43.618 83.5628 50.6961 93.7466 50.6961C103.714 50.6961 106.458 45.5681 106.458 41.7401C106.458 37.2621 103.642 34.8065 93.6744 33.5786C81.8294 32.1341 75.2569 28.0173 75.2569 19.3502C75.2569 11.4053 82.0461 5.04949 93.8189 5.04949C106.314 5.04949 111.803 12.9943 112.02 21.228H105.014C105.014 16.75 101.98 11.4053 93.6744 11.4053C85.1518 11.4053 82.6961 15.5944 82.6961 18.9168C82.6961 22.0225 84.0684 25.1282 94.3967 26.5005Z" fill="white" />
	<path d="M153.262 37.4788C153.262 38.49 153.19 39.2122 153.046 40.0067H125.455C125.961 45.9292 130.006 50.6961 136.723 50.6961C141.706 50.6961 144.162 48.2404 145.462 43.9791H152.612C151.096 50.8406 146.04 57.052 136.578 57.052C124.95 57.052 118.594 48.4571 118.594 37.9844C118.594 26.8616 125.817 18.9168 136.434 18.9168C144.667 18.9168 153.262 24.3337 153.262 37.4788ZM125.817 34.2287H146.329C145.895 28.8117 142.428 24.9838 136.795 24.9838C129.861 24.9838 126.828 29.2451 125.817 34.2287Z" fill="white" />
	<path d="M178.853 18.9168C187.376 18.9168 192.576 23.6837 192.576 34.5176V56.4742H185.643V35.9621C185.643 27.3672 181.959 24.9838 177.12 24.9838C171.775 24.9838 165.997 30.4007 165.997 39.2122V56.4742H159.064V19.4946H165.997V21.9503C165.997 23.467 165.853 24.9838 165.203 26.8616C164.986 27.5117 164.697 28.2339 165.275 28.3784C165.708 28.5228 165.925 28.0173 166.069 27.7284C167.514 24.1171 172.209 18.9168 178.853 18.9168Z" fill="white" />
	<path d="M227.257 4.47168H234.191V56.4742H227.257V53.3685C227.257 52.0684 227.401 51.0573 227.979 49.4683C228.196 48.8905 228.557 48.2404 227.835 48.0238C227.401 47.8793 227.185 48.4571 227.113 48.6738C225.379 53.8741 220.468 57.052 214.69 57.052C205.084 57.052 198.367 48.9627 198.367 37.9844C198.367 27.0061 205.084 18.9168 214.69 18.9168C220.612 18.9168 225.451 22.167 227.113 27.1505C227.185 27.3672 227.401 28.0895 227.979 27.8728C228.629 27.6561 228.196 26.9339 227.979 26.3561C227.401 24.8393 227.257 23.7559 227.257 22.3837V4.47168ZM216.134 50.6961C222.707 50.6961 227.257 44.8458 227.257 37.9844C227.257 31.123 222.707 25.2727 216.134 25.2727C208.912 25.2727 205.3 31.123 205.3 37.9844C205.3 44.8458 208.912 50.6961 216.134 50.6961Z" fill="white" />
	<path d="M278.956 56.4742L274.839 44.3403H251.294L247.177 56.4742H238.798L257.288 5.62729H268.844L287.334 56.4742H278.956ZM253.388 37.9844H272.745L264.366 13.1388C264.077 12.1998 263.789 11.3331 263.644 10.1053C263.572 9.67193 263.572 9.23857 263.066 9.23857C262.561 9.23857 262.561 9.67193 262.489 10.1053C262.344 11.3331 262.055 12.1998 261.766 13.1388L253.388 37.9844Z" fill="white" />
	<path d="M299.459 56.4742H291.948V5.62729H299.459V56.4742Z" fill="white" />
</svg>
