<svg viewBox="0 0 84 21" fill="none" xmlns="http://www.w3.org/2000/svg">
	<path fill-rule="evenodd" clip-rule="evenodd" d="M10.2617 20.5235C15.9291 20.5235 20.5235 15.9292 20.5235 10.2618C20.5235 4.59437 15.9291 3.05176e-05 10.2617 3.05176e-05C4.59433 3.05176e-05 0 4.59437 0 10.2618C0 15.9292 4.59433 20.5235 10.2617 20.5235ZM18.9532 8.6192C18.4262 5.81307 16.5737 3.4744 14.0708 2.27808C13.4992 2.00489 13.2135 1.8683 13.1721 1.93011C13.1308 1.99192 13.3767 2.21331 13.8686 2.65609C15.5318 4.15321 16.9021 6.53507 17.1957 7.56245C16.8266 7.83926 16.0884 8.20834 15.6569 8.32556C15.7326 8.94199 15.7723 9.58053 15.7723 10.2343C15.7723 10.6302 15.7636 11.0225 15.7453 11.4093C15.7346 11.6347 15.7293 11.7474 15.8011 11.8021C15.873 11.8567 15.9767 11.8226 16.1842 11.7544C16.7536 11.5671 17.229 11.3574 17.5968 11.1363C18.0611 10.8571 18.5752 10.4764 18.7899 10.09C19.0046 9.70359 19.0475 9.12131 18.9532 8.6192ZM9.55392 2.74724C9.55392 2.63009 9.55392 2.57152 9.51274 2.54414C9.47157 2.51675 9.41986 2.53844 9.31643 2.58181C8.48631 2.9299 7.76398 3.67192 7.20607 4.8069C6.94875 5.33038 6.73489 5.92265 6.56786 6.56972C6.5393 6.68035 6.52502 6.73567 6.55564 6.76991C6.58626 6.80414 6.64375 6.79597 6.75875 6.77963C7.63544 6.65507 8.57553 6.57647 9.55392 6.55079V2.74724ZM9.55392 7.96929C8.65218 7.99428 7.79458 8.0665 7.00208 8.17733C6.64375 8.22745 6.46458 8.25251 6.34001 8.38611C6.21544 8.51972 6.20307 8.6987 6.17834 9.05666C6.15186 9.43979 6.1384 9.83275 6.1384 10.2337C6.1384 10.6935 6.15832 11.1504 6.19628 11.5994C6.2215 11.8977 6.2341 12.0468 6.33669 12.1557C6.43928 12.2647 6.58814 12.2864 6.88587 12.3298C7.91427 12.4798 9.05531 12.5643 10.2617 12.5643C10.3506 12.5643 10.4391 12.5638 10.5273 12.5629C10.681 12.5613 10.8033 12.6961 10.7865 12.8489C10.7135 13.5115 10.1327 13.9825 9.46654 13.9586C8.43062 13.9216 7.35077 13.8366 6.51726 13.7084C6.51751 13.7095 6.51776 13.7106 6.518 13.7117C6.20389 13.6632 5.86663 13.6074 5.6404 13.56C5.38252 13.5059 5.07448 13.4306 4.82612 13.3674C4.70298 13.3361 4.59651 13.3083 4.52096 13.2883C4.48321 13.2783 4.45324 13.2703 4.43285 13.2649L4.4323 13.2647C4.20614 13.2009 3.98837 13.1334 3.77973 13.0624C2.93731 12.7755 2.20467 12.4181 1.66837 11.9863C1.63525 11.9597 1.60253 11.9324 1.57028 11.9046C2.09315 14.688 3.92008 17.0115 6.3924 18.2164C6.66568 18.3495 6.80232 18.4161 6.84544 18.3648C6.88855 18.3135 6.79529 18.1848 6.60877 17.9273C6.29053 17.4881 6.01012 16.979 5.76782 16.4279C5.6706 16.2067 5.57845 15.9763 5.49169 15.7379C5.36259 15.383 5.29804 15.2055 5.3926 15.0918C5.48715 14.978 5.68157 15.0104 6.07039 15.0752C6.19866 15.0966 6.32053 15.1162 6.42345 15.1317C6.74388 15.1803 7.00987 15.4007 7.13337 15.7004C7.16158 15.7688 7.19027 15.8362 7.21943 15.9026C7.55031 16.6552 7.92559 17.2331 8.30471 17.6106C8.68603 17.9902 9.00267 18.1039 9.23771 18.1039C10.1654 18.1039 10.9411 17.5145 11.5147 16.0611C11.756 15.4498 11.9407 14.7282 12.0734 13.9207C12.0711 13.9209 12.0688 13.921 12.0665 13.9212C12.1492 13.442 12.2044 12.9895 12.245 12.486C12.2461 12.4859 12.2472 12.4858 12.2482 12.4858C12.3082 11.7762 12.337 11.0215 12.337 10.2337C12.337 9.80366 12.3222 9.38169 12.2937 8.97021C11.5066 9.01928 10.5009 9.04784 9.55617 9.00781V8.98567H9.55392V7.96929ZM4.57558 10.2337C4.57558 10.6305 4.58933 11.0264 4.61601 11.4187C4.62715 11.5826 4.63273 11.6645 4.59575 11.7151C4.57657 11.7413 4.54971 11.7619 4.51942 11.7737C4.46106 11.7965 4.3863 11.771 4.23679 11.7201C3.4788 11.462 2.91631 11.1706 2.55757 10.8818C2.19246 10.5878 2.12698 10.3738 2.12698 10.2619C2.12698 10.1526 2.1889 9.94638 2.53319 9.66188C2.8727 9.38134 3.40714 9.0959 4.13178 8.84009C4.14151 8.83666 4.15126 8.83323 4.16103 8.82982C4.37273 8.75584 4.47858 8.71885 4.55192 8.77411C4.62525 8.82938 4.61861 8.94567 4.60533 9.17823C4.58548 9.52561 4.57558 9.87787 4.57558 10.2337ZM5.77877 4.22933C5.4428 4.91282 5.1778 5.67829 4.98302 6.50201C4.90742 6.82171 4.86962 6.98157 4.77499 7.08201C4.68036 7.18245 4.52335 7.22962 4.20932 7.32396C4.01961 7.38095 3.83627 7.44067 3.65976 7.50298C2.85023 7.78876 2.14578 8.14255 1.62994 8.5688C1.60988 8.58538 1.58997 8.60219 1.57023 8.61922C2.12193 5.68185 4.12587 3.25669 6.80799 2.11781C7.16909 1.96448 7.34964 1.88782 7.3894 1.94557C7.42916 2.00333 7.28631 2.15166 7.00061 2.44831C6.5128 2.95483 6.10677 3.56208 5.77877 4.22933ZM13.7117 17.9774C13.4321 18.2939 13.2922 18.4522 13.3336 18.508C13.3749 18.5639 13.5571 18.481 13.9214 18.3152C16.3545 17.2077 18.1976 15.03 18.8493 12.3835C18.8973 12.1888 18.9212 12.0915 18.8728 12.0577C18.8244 12.024 18.7373 12.083 18.5632 12.2011C18.4859 12.2535 18.407 12.3037 18.3274 12.3516C17.7565 12.6947 17.0387 12.9883 16.2198 13.2278C15.8915 13.3238 15.7273 13.3718 15.6302 13.4778C15.533 13.5839 15.4995 13.7513 15.4325 14.0863C15.2448 15.0242 14.9725 15.8876 14.5987 16.6385C14.3492 17.1396 14.0542 17.5899 13.7117 17.9774Z" fill="white" />
	<path d="M30.6176 9.16126C33.5091 9.553 35.673 10.2246 35.673 12.9854C35.673 15.112 33.9008 17.052 30.4498 17.052C26.8122 17.052 25.2266 14.7016 25.2266 12.2765H27.092C27.1293 13.5823 27.8195 15.4104 30.4498 15.4104C33.024 15.4104 33.7329 14.086 33.7329 13.0973C33.7329 11.9407 33.0054 11.3065 30.4311 10.9894C27.3718 10.6163 25.6743 9.553 25.6743 7.31449C25.6743 5.26252 27.4278 3.62094 30.4684 3.62094C33.6956 3.62094 35.1133 5.67291 35.1693 7.7995H33.3598C33.3598 6.64294 32.5763 5.26252 30.4311 5.26252C28.2299 5.26252 27.5957 6.34447 27.5957 7.20256C27.5957 8.0047 27.9501 8.80683 30.6176 9.16126Z" fill="white" />
	<path d="M45.8213 11.9967C45.8213 12.2579 45.8027 12.4444 45.7653 12.6496H38.6394C38.77 14.1793 39.8146 15.4104 41.5495 15.4104C42.8366 15.4104 43.4709 14.7762 43.8067 13.6756H45.6534C45.2617 15.4478 43.9559 17.052 41.5122 17.052C38.5088 17.052 36.8673 14.8322 36.8673 12.1273C36.8673 9.25453 38.7327 7.20256 41.4749 7.20256C43.6015 7.20256 45.8213 8.60163 45.8213 11.9967ZM38.7327 11.1573H44.0305C43.9186 9.7582 43.0232 8.76952 41.5681 8.76952C39.7773 8.76952 38.9938 9.87012 38.7327 11.1573Z" fill="white" />
	<path d="M52.4309 7.20256C54.6321 7.20256 55.9752 8.43375 55.9752 11.2319V16.9028H54.1844V11.605C54.1844 9.38511 53.233 8.76952 51.9832 8.76952C50.6028 8.76952 49.1104 10.1686 49.1104 12.4444V16.9028H47.3196V7.3518H49.1104V7.98604C49.1104 8.37778 49.0731 8.76952 48.9052 9.25453C48.8493 9.42242 48.7747 9.60896 48.9239 9.64627C49.0358 9.68358 49.0918 9.553 49.1291 9.47838C49.5022 8.54567 50.7147 7.20256 52.4309 7.20256Z" fill="white" />
	<path d="M64.9325 3.47171H66.7233V16.9028H64.9325V16.1006C64.9325 15.7649 64.9698 15.5037 65.119 15.0933C65.175 14.9441 65.2682 14.7762 65.0817 14.7202C64.9698 14.6829 64.9138 14.8322 64.8952 14.8881C64.4475 16.2312 63.179 17.052 61.6866 17.052C59.2056 17.052 57.4708 14.9627 57.4708 12.1273C57.4708 9.29184 59.2056 7.20256 61.6866 7.20256C63.2163 7.20256 64.4661 8.04201 64.8952 9.32915C64.9138 9.38511 64.9698 9.57166 65.119 9.51569C65.2869 9.45973 65.175 9.27319 65.119 9.12395C64.9698 8.73221 64.9325 8.4524 64.9325 8.09797V3.47171ZM62.0597 15.4104C63.7572 15.4104 64.9325 13.8994 64.9325 12.1273C64.9325 10.3551 63.7572 8.84414 62.0597 8.84414C60.1943 8.84414 59.2616 10.3551 59.2616 12.1273C59.2616 13.8994 60.1943 15.4104 62.0597 15.4104Z" fill="white" />
	<path d="M78.2851 16.9028L77.2218 13.7689H71.1405L70.0772 16.9028H67.9134L72.6888 3.77018H75.6735L80.449 16.9028H78.2851ZM71.6815 12.1273H76.6809L74.517 5.71022C74.4423 5.46772 74.3677 5.24387 74.3304 4.92674C74.3118 4.81482 74.3118 4.70289 74.1812 4.70289C74.0506 4.70289 74.0506 4.81482 74.032 4.92674C73.9946 5.24387 73.92 5.46772 73.8454 5.71022L71.6815 12.1273Z" fill="white" />
	<path d="M83.5806 16.9028H81.6406V3.77018H83.5806V16.9028Z" fill="white" />
</svg>
