<svg viewBox="0 0 300 300" fill="none" xmlns="http://www.w3.org/2000/svg">
	<g clip-path="url(#clip0_640_541)">
		<path d="M150 300C120.333 300 91.3319 291.203 66.6645 274.721C41.9972 258.238 22.7713 234.812 11.4181 207.403C0.0649929 179.994 -2.90551 149.834 2.88228 120.737C8.67006 91.6394 22.9562 64.9119 43.9341 43.9341C64.9119 22.9562 91.6394 8.67006 120.737 2.88228C149.834 -2.90551 179.994 0.0649929 207.403 11.4181C234.812 22.7713 258.238 41.9972 274.721 66.6645C291.203 91.3319 300 120.333 300 150C300 189.783 284.197 227.936 256.066 256.066C227.936 284.197 189.783 300 150 300ZM150 12.5001C122.805 12.5001 96.2209 20.5643 73.6092 35.673C50.9974 50.7817 33.3737 72.2563 22.9666 97.3811C12.5596 122.506 9.83662 150.153 15.1421 176.825C20.4476 203.497 33.5432 227.998 52.7729 247.227C72.0026 266.457 96.5028 279.553 123.175 284.858C149.848 290.164 177.494 287.441 202.619 277.033C227.744 266.626 249.218 249.003 264.327 226.391C279.436 203.779 287.5 177.195 287.5 150C287.5 113.533 273.014 78.5591 247.227 52.7729C221.441 26.9866 186.467 12.5001 150 12.5001Z" fill="white" />
		<path d="M150 300C100.938 300 62.5 234.125 62.5 150C62.5 65.875 100.938 0 150 0C199.062 0 237.5 65.875 237.5 150C237.5 234.125 199.062 300 150 300ZM150 12.5C108.625 12.5 75 74.1875 75 150C75 225.813 108.625 287.5 150 287.5C191.375 287.5 225 225.813 225 150C225 74.1875 191.375 12.5 150 12.5Z" fill="white" />
		<path d="M156.25 25H143.75V293.75H156.25V25Z" fill="white" />
		<path d="M212.5 143.75H6.25V156.25H212.5V143.75Z" fill="white" />
		<path d="M293.75 143.75H231.25V156.25H293.75V143.75Z" fill="white" />
		<path d="M275 75H43.75V87.5H275V75Z" fill="white" />
		<path d="M75 212.5H25V225H75V212.5Z" fill="white" />
		<path d="M275 212.5H100V225H275V212.5Z" fill="white" />
	</g>
	<defs>
		<clipPath id="clip0_640_541">
			<rect width="300" height="300" fill="white" />
		</clipPath>
	</defs>
</svg>
